STARTFONT 2.1
FONT -FontForge-DM Serif Display-Book-R-Normal--14-140-72-72-P-77-ISO10646-1
SIZE 14 72 72
FONTBOUNDINGBOX 15 14 -2 -3
COMMENT "Generated by fontforge, http://fontforge.sourceforge.net"
COMMENT "Copyright 2014 - 2017 Adobe Systems Incorporated (http://www.adobe.com/), with Reserved Font Name 'Source'. Copyright 2019 Google LLC."
STARTPROPERTIES 39
FOUNDRY "FontForge"
FAMILY_NAME "DM Serif Display"
WEIGHT_NAME "Book"
SLANT "R"
SETWIDTH_NAME "Normal"
ADD_STYLE_NAME ""
PIXEL_SIZE 14
POINT_SIZE 140
RESOLUTION_X 72
RESOLUTION_Y 72
SPACING "P"
AVERAGE_WIDTH 77
CHARSET_REGISTRY "ISO10646"
CHARSET_ENCODING "1"
FONTNAME_REGISTRY ""
CHARSET_COLLECTIONS "ISO10646-1"
FONT_NAME "DMSerifDisplay-Regular"
FACE_NAME "DM Serif Display Regular"
COPYRIGHT "Copyright 2014 - 2017 Adobe Systems Incorporated (http://www.adobe.com/), with Reserved Font Name 'Source'. Copyright 2019 Google LLC."
FONT_VERSION "5.200; ttfautohint (v1.8.3)"
FONT_ASCENT 11
FONT_DESCENT 3
UNDERLINE_POSITION -1
UNDERLINE_THICKNESS 1
X_HEIGHT 6
CAP_HEIGHT 8
RAW_ASCENT 800
RAW_DESCENT 200
NORM_SPACE 3
RELATIVE_WEIGHT 40
RELATIVE_SETWIDTH 50
SUPERSCRIPT_X 0
SUPERSCRIPT_Y 4
SUPERSCRIPT_SIZE 8
SUBSCRIPT_X 0
SUBSCRIPT_Y 1
SUBSCRIPT_SIZE 8
AVG_LOWERCASE_WIDTH 81
AVG_UPPERCASE_WIDTH 92
ENDPROPERTIES
CHARS 95
STARTCHAR space
ENCODING 32
SWIDTH 218 0
DWIDTH 3 0
BBX 1 1 0 0
BITMAP
00
ENDCHAR
STARTCHAR exclam
ENCODING 33
SWIDTH 333 0
DWIDTH 5 0
BBX 3 10 1 0
BITMAP
40
E0
E0
60
40
40
40
00
C0
C0
ENDCHAR
STARTCHAR quotedbl
ENCODING 34
SWIDTH 425 0
DWIDTH 6 0
BBX 5 4 0 7
BITMAP
D8
D8
90
90
ENDCHAR
STARTCHAR numbersign
ENCODING 35
SWIDTH 557 0
DWIDTH 9 0
BBX 8 9 0 0
BITMAP
12
12
7F
24
24
24
FE
48
48
ENDCHAR
STARTCHAR dollar
ENCODING 36
SWIDTH 532 0
DWIDTH 8 0
BBX 7 11 0 -1
BITMAP
10
3C
56
56
70
3C
1E
D6
D6
7C
10
ENDCHAR
STARTCHAR percent
ENCODING 37
SWIDTH 871 0
DWIDTH 11 0
BBX 10 9 0 0
BITMAP
6100
9200
9200
9580
9640
6A40
1240
1240
2180
ENDCHAR
STARTCHAR ampersand
ENCODING 38
SWIDTH 721 0
DWIDTH 11 0
BBX 10 9 0 0
BITMAP
3800
6400
6400
39C0
3880
5D00
CE00
E700
7BC0
ENDCHAR
STARTCHAR quotesingle
ENCODING 39
SWIDTH 223 0
DWIDTH 4 0
BBX 2 4 1 7
BITMAP
C0
C0
80
80
ENDCHAR
STARTCHAR parenleft
ENCODING 40
SWIDTH 368 0
DWIDTH 5 0
BBX 3 12 1 -2
BITMAP
20
40
40
C0
C0
C0
C0
C0
C0
40
40
20
ENDCHAR
STARTCHAR parenright
ENCODING 41
SWIDTH 368 0
DWIDTH 5 0
BBX 3 12 1 -2
BITMAP
80
40
40
60
60
60
60
60
60
40
40
80
ENDCHAR
STARTCHAR asterisk
ENCODING 42
SWIDTH 433 0
DWIDTH 6 0
BBX 5 6 0 5
BITMAP
20
20
F8
30
68
40
ENDCHAR
STARTCHAR plus
ENCODING 43
SWIDTH 541 0
DWIDTH 8 0
BBX 7 7 0 1
BITMAP
10
10
10
FE
10
10
10
ENDCHAR
STARTCHAR comma
ENCODING 44
SWIDTH 300 0
DWIDTH 4 0
BBX 2 4 1 -2
BITMAP
C0
C0
40
80
ENDCHAR
STARTCHAR hyphen
ENCODING 45
SWIDTH 332 0
DWIDTH 5 0
BBX 4 1 0 3
BITMAP
F0
ENDCHAR
STARTCHAR period
ENCODING 46
SWIDTH 300 0
DWIDTH 4 0
BBX 2 2 1 0
BITMAP
C0
C0
ENDCHAR
STARTCHAR slash
ENCODING 47
SWIDTH 342 0
DWIDTH 5 0
BBX 4 12 0 -2
BITMAP
10
10
10
20
20
20
40
40
40
80
80
80
ENDCHAR
STARTCHAR zero
ENCODING 48
SWIDTH 502 0
DWIDTH 8 0
BBX 7 9 0 0
BITMAP
38
44
44
C6
C6
C6
44
44
38
ENDCHAR
STARTCHAR one
ENCODING 49
SWIDTH 350 0
DWIDTH 5 0
BBX 4 9 0 0
BITMAP
20
60
E0
60
60
60
60
60
F0
ENDCHAR
STARTCHAR two
ENCODING 50
SWIDTH 532 0
DWIDTH 7 0
BBX 6 9 0 0
BITMAP
F8
8C
0C
08
10
20
40
FC
FC
ENDCHAR
STARTCHAR three
ENCODING 51
SWIDTH 532 0
DWIDTH 7 0
BBX 6 9 0 0
BITMAP
78
8C
0C
0C
18
0C
8C
CC
B8
ENDCHAR
STARTCHAR four
ENCODING 52
SWIDTH 538 0
DWIDTH 8 0
BBX 7 9 0 0
BITMAP
0C
1C
1C
2C
4C
4C
FE
0C
0C
ENDCHAR
STARTCHAR five
ENCODING 53
SWIDTH 532 0
DWIDTH 7 0
BBX 6 9 0 0
BITMAP
7C
7C
40
F8
8C
0C
0C
8C
F8
ENDCHAR
STARTCHAR six
ENCODING 54
SWIDTH 530 0
DWIDTH 8 0
BBX 7 9 0 0
BITMAP
1C
30
60
7C
C6
C6
C6
C6
7C
ENDCHAR
STARTCHAR seven
ENCODING 55
SWIDTH 489 0
DWIDTH 8 0
BBX 7 9 0 0
BITMAP
FE
06
0C
0C
18
18
30
30
60
ENDCHAR
STARTCHAR eight
ENCODING 56
SWIDTH 502 0
DWIDTH 8 0
BBX 7 9 0 0
BITMAP
38
64
64
74
38
5C
CE
CE
7C
ENDCHAR
STARTCHAR nine
ENCODING 57
SWIDTH 532 0
DWIDTH 8 0
BBX 7 9 0 0
BITMAP
38
64
C6
C6
66
3E
06
0C
78
ENDCHAR
STARTCHAR colon
ENCODING 58
SWIDTH 300 0
DWIDTH 4 0
BBX 2 7 1 0
BITMAP
C0
C0
00
00
00
C0
C0
ENDCHAR
STARTCHAR semicolon
ENCODING 59
SWIDTH 300 0
DWIDTH 4 0
BBX 2 9 1 -2
BITMAP
C0
C0
00
00
00
C0
C0
40
80
ENDCHAR
STARTCHAR less
ENCODING 60
SWIDTH 541 0
DWIDTH 7 0
BBX 6 7 0 1
BITMAP
0C
30
40
80
40
30
0C
ENDCHAR
STARTCHAR equal
ENCODING 61
SWIDTH 541 0
DWIDTH 8 0
BBX 7 3 0 3
BITMAP
FE
00
FE
ENDCHAR
STARTCHAR greater
ENCODING 62
SWIDTH 541 0
DWIDTH 7 0
BBX 6 7 0 1
BITMAP
C0
30
08
04
08
30
C0
ENDCHAR
STARTCHAR question
ENCODING 63
SWIDTH 506 0
DWIDTH 7 0
BBX 6 10 0 0
BITMAP
78
CC
CC
0C
18
30
20
00
30
30
ENDCHAR
STARTCHAR at
ENCODING 64
SWIDTH 877 0
DWIDTH 12 0
BBX 11 11 0 -2
BITMAP
1F00
2080
4F40
9340
B320
B320
B340
9740
8D80
6000
1E00
ENDCHAR
STARTCHAR A
ENCODING 65
SWIDTH 650 0
DWIDTH 10 0
BBX 9 9 0 0
BITMAP
0800
1800
1C00
2C00
2600
3E00
4700
4300
E780
ENDCHAR
STARTCHAR B
ENCODING 66
SWIDTH 598 0
DWIDTH 9 0
BBX 8 9 0 0
BITMAP
FC
66
66
66
7C
63
63
63
FE
ENDCHAR
STARTCHAR C
ENCODING 67
SWIDTH 603 0
DWIDTH 9 0
BBX 8 9 0 0
BITMAP
1F
61
60
E0
E0
E0
60
61
1F
ENDCHAR
STARTCHAR D
ENCODING 68
SWIDTH 648 0
DWIDTH 10 0
BBX 9 9 0 0
BITMAP
FC00
6300
6300
6180
6180
6180
6300
6300
FC00
ENDCHAR
STARTCHAR E
ENCODING 69
SWIDTH 555 0
DWIDTH 8 0
BBX 7 9 0 0
BITMAP
FE
62
60
64
7C
64
60
62
FE
ENDCHAR
STARTCHAR F
ENCODING 70
SWIDTH 538 0
DWIDTH 8 0
BBX 7 9 0 0
BITMAP
FE
62
60
64
7C
64
60
60
F0
ENDCHAR
STARTCHAR G
ENCODING 71
SWIDTH 656 0
DWIDTH 10 0
BBX 9 9 0 0
BITMAP
1F00
6100
6000
E000
E780
E300
6300
6300
1F00
ENDCHAR
STARTCHAR H
ENCODING 72
SWIDTH 691 0
DWIDTH 11 0
BBX 10 9 0 0
BITMAP
F3C0
6180
6180
6180
7F80
6180
6180
6180
F3C0
ENDCHAR
STARTCHAR I
ENCODING 73
SWIDTH 301 0
DWIDTH 5 0
BBX 4 9 0 0
BITMAP
F0
60
60
60
60
60
60
60
F0
ENDCHAR
STARTCHAR J
ENCODING 74
SWIDTH 427 0
DWIDTH 7 0
BBX 6 9 0 0
BITMAP
3C
18
18
18
18
18
18
D0
E0
ENDCHAR
STARTCHAR K
ENCODING 75
SWIDTH 654 0
DWIDTH 10 0
BBX 9 9 0 0
BITMAP
F700
6200
6400
6800
7800
6C00
6600
6300
F780
ENDCHAR
STARTCHAR L
ENCODING 76
SWIDTH 540 0
DWIDTH 8 0
BBX 7 9 0 0
BITMAP
F0
60
60
60
60
60
60
62
FE
ENDCHAR
STARTCHAR M
ENCODING 77
SWIDTH 791 0
DWIDTH 12 0
BBX 11 9 0 0
BITMAP
E0E0
60C0
71C0
71C0
5AC0
5AC0
4CC0
4CC0
E1E0
ENDCHAR
STARTCHAR N
ENCODING 78
SWIDTH 653 0
DWIDTH 10 0
BBX 9 9 0 0
BITMAP
E380
7100
7900
5D00
4F00
4700
4300
4100
E100
ENDCHAR
STARTCHAR O
ENCODING 79
SWIDTH 670 0
DWIDTH 10 0
BBX 9 9 0 0
BITMAP
3E00
6300
C180
C180
C180
C180
C180
6300
3E00
ENDCHAR
STARTCHAR P
ENCODING 80
SWIDTH 565 0
DWIDTH 9 0
BBX 8 9 0 0
BITMAP
FE
63
63
63
7E
60
60
60
F0
ENDCHAR
STARTCHAR Q
ENCODING 81
SWIDTH 670 0
DWIDTH 10 0
BBX 9 12 0 -3
BITMAP
3E00
6300
C180
C180
C180
C180
C180
6300
1E00
2000
7C80
4F00
ENDCHAR
STARTCHAR R
ENCODING 82
SWIDTH 628 0
DWIDTH 10 0
BBX 9 9 0 0
BITMAP
FE00
6300
6300
6300
7C00
6600
6600
6300
F380
ENDCHAR
STARTCHAR S
ENCODING 83
SWIDTH 521 0
DWIDTH 8 0
BBX 7 9 0 0
BITMAP
3E
62
60
70
3C
0E
06
86
FC
ENDCHAR
STARTCHAR T
ENCODING 84
SWIDTH 627 0
DWIDTH 9 0
BBX 8 9 0 0
BITMAP
FF
99
18
18
18
18
18
18
3C
ENDCHAR
STARTCHAR U
ENCODING 85
SWIDTH 649 0
DWIDTH 9 0
BBX 9 9 0 0
BITMAP
F380
6100
6100
6100
6100
6100
6100
7100
3E00
ENDCHAR
STARTCHAR V
ENCODING 86
SWIDTH 632 0
DWIDTH 9 0
BBX 9 9 0 0
BITMAP
F380
6100
7100
3200
3200
3A00
1C00
1C00
0800
ENDCHAR
STARTCHAR W
ENCODING 87
SWIDTH 921 0
DWIDTH 13 0
BBX 13 9 0 0
BITMAP
F798
6310
6310
35A0
35A0
35A0
18C0
18C0
1080
ENDCHAR
STARTCHAR X
ENCODING 88
SWIDTH 614 0
DWIDTH 9 0
BBX 8 9 0 0
BITMAP
F7
62
34
38
18
1C
2C
46
EF
ENDCHAR
STARTCHAR Y
ENCODING 89
SWIDTH 590 0
DWIDTH 9 0
BBX 8 9 0 0
BITMAP
F7
62
34
34
18
18
18
18
3C
ENDCHAR
STARTCHAR Z
ENCODING 90
SWIDTH 560 0
DWIDTH 9 0
BBX 8 9 0 0
BITMAP
FF
8E
0C
1C
18
38
30
71
FF
ENDCHAR
STARTCHAR bracketleft
ENCODING 91
SWIDTH 342 0
DWIDTH 5 0
BBX 4 12 1 -2
BITMAP
F0
C0
C0
C0
C0
C0
C0
C0
C0
C0
C0
F0
ENDCHAR
STARTCHAR backslash
ENCODING 92
SWIDTH 336 0
DWIDTH 5 0
BBX 4 12 0 -2
BITMAP
80
80
80
40
40
40
20
20
20
10
10
10
ENDCHAR
STARTCHAR bracketright
ENCODING 93
SWIDTH 342 0
DWIDTH 5 0
BBX 4 12 0 -2
BITMAP
F0
30
30
30
30
30
30
30
30
30
30
F0
ENDCHAR
STARTCHAR asciicircum
ENCODING 94
SWIDTH 541 0
DWIDTH 8 0
BBX 6 3 1 3
BITMAP
30
48
84
ENDCHAR
STARTCHAR underscore
ENCODING 95
SWIDTH 532 0
DWIDTH 7 0
BBX 6 1 1 -1
BITMAP
FC
ENDCHAR
STARTCHAR grave
ENCODING 96
SWIDTH 400 0
DWIDTH 6 0
BBX 3 3 1 8
BITMAP
C0
40
20
ENDCHAR
STARTCHAR a
ENCODING 97
SWIDTH 518 0
DWIDTH 8 0
BBX 7 7 0 0
BITMAP
78
EC
4C
3C
4C
CC
76
ENDCHAR
STARTCHAR b
ENCODING 98
SWIDTH 581 0
DWIDTH 9 0
BBX 8 10 0 0
BITMAP
E0
60
60
7E
67
63
63
63
66
FC
ENDCHAR
STARTCHAR c
ENCODING 99
SWIDTH 494 0
DWIDTH 8 0
BBX 7 7 0 0
BITMAP
3C
66
C6
C0
C0
62
3C
ENDCHAR
STARTCHAR d
ENCODING 100
SWIDTH 574 0
DWIDTH 9 0
BBX 8 10 0 0
BITMAP
0E
06
06
3E
66
C6
C6
C6
66
3F
ENDCHAR
STARTCHAR e
ENCODING 101
SWIDTH 507 0
DWIDTH 8 0
BBX 7 7 0 0
BITMAP
3C
66
E6
FE
E0
62
3C
ENDCHAR
STARTCHAR f
ENCODING 102
SWIDTH 343 0
DWIDTH 6 0
BBX 6 10 0 0
BITMAP
1C
2C
60
F8
60
60
60
60
60
F0
ENDCHAR
STARTCHAR g
ENCODING 103
SWIDTH 531 0
DWIDTH 8 0
BBX 7 10 0 -3
BITMAP
7A
CC
CC
CC
78
60
7C
8E
82
7C
ENDCHAR
STARTCHAR h
ENCODING 104
SWIDTH 580 0
DWIDTH 9 0
BBX 8 10 0 0
BITMAP
E0
60
60
7C
66
66
66
66
66
F7
ENDCHAR
STARTCHAR i
ENCODING 105
SWIDTH 280 0
DWIDTH 5 0
BBX 4 10 0 0
BITMAP
60
60
00
E0
60
60
60
60
60
F0
ENDCHAR
STARTCHAR j
ENCODING 106
SWIDTH 281 0
DWIDTH 4 0
BBX 5 13 -2 -3
BITMAP
18
18
00
38
18
18
18
18
18
18
18
D8
F0
ENDCHAR
STARTCHAR k
ENCODING 107
SWIDTH 582 0
DWIDTH 9 0
BBX 8 10 0 0
BITMAP
E0
60
60
6E
64
68
78
6C
66
F7
ENDCHAR
STARTCHAR l
ENCODING 108
SWIDTH 286 0
DWIDTH 5 0
BBX 4 10 0 0
BITMAP
E0
60
60
60
60
60
60
60
60
F0
ENDCHAR
STARTCHAR m
ENCODING 109
SWIDTH 871 0
DWIDTH 13 0
BBX 12 7 0 0
BITMAP
EEC0
7760
6660
6660
6660
6660
F770
ENDCHAR
STARTCHAR n
ENCODING 110
SWIDTH 578 0
DWIDTH 9 0
BBX 8 7 0 0
BITMAP
EC
76
66
66
66
66
F7
ENDCHAR
STARTCHAR o
ENCODING 111
SWIDTH 545 0
DWIDTH 8 0
BBX 7 7 0 0
BITMAP
38
4C
C6
C6
C6
64
38
ENDCHAR
STARTCHAR p
ENCODING 112
SWIDTH 578 0
DWIDTH 9 0
BBX 8 10 0 -3
BITMAP
FC
66
63
63
63
66
7C
60
60
F0
ENDCHAR
STARTCHAR q
ENCODING 113
SWIDTH 565 0
DWIDTH 9 0
BBX 8 10 0 -3
BITMAP
3A
66
C6
C6
C6
66
3E
06
06
0F
ENDCHAR
STARTCHAR r
ENCODING 114
SWIDTH 441 0
DWIDTH 7 0
BBX 6 7 0 0
BITMAP
DC
6C
60
60
60
60
F0
ENDCHAR
STARTCHAR s
ENCODING 115
SWIDTH 436 0
DWIDTH 7 0
BBX 6 7 0 0
BITMAP
78
C8
E0
78
1C
8C
F8
ENDCHAR
STARTCHAR t
ENCODING 116
SWIDTH 361 0
DWIDTH 6 0
BBX 5 9 0 0
BITMAP
20
60
F8
60
60
60
60
68
30
ENDCHAR
STARTCHAR u
ENCODING 117
SWIDTH 567 0
DWIDTH 9 0
BBX 8 7 0 0
BITMAP
EE
66
66
66
66
66
3B
ENDCHAR
STARTCHAR v
ENCODING 118
SWIDTH 530 0
DWIDTH 9 0
BBX 8 7 0 0
BITMAP
F7
62
74
34
38
18
10
ENDCHAR
STARTCHAR w
ENCODING 119
SWIDTH 781 0
DWIDTH 12 0
BBX 12 7 0 0
BITMAP
F670
6220
7740
3F40
3B80
1980
1100
ENDCHAR
STARTCHAR x
ENCODING 120
SWIDTH 568 0
DWIDTH 9 0
BBX 8 7 0 0
BITMAP
F6
64
38
18
2C
46
EF
ENDCHAR
STARTCHAR y
ENCODING 121
SWIDTH 536 0
DWIDTH 9 0
BBX 8 10 0 -3
BITMAP
F7
62
64
34
38
18
10
10
D0
E0
ENDCHAR
STARTCHAR z
ENCODING 122
SWIDTH 465 0
DWIDTH 7 0
BBX 6 7 0 0
BITMAP
FC
98
18
30
30
64
FC
ENDCHAR
STARTCHAR braceleft
ENCODING 123
SWIDTH 338 0
DWIDTH 6 0
BBX 4 12 1 -2
BITMAP
30
60
60
20
20
40
C0
40
20
60
60
30
ENDCHAR
STARTCHAR bar
ENCODING 124
SWIDTH 267 0
DWIDTH 4 0
BBX 1 14 1 -3
BITMAP
80
80
80
80
80
80
80
80
80
80
80
80
80
80
ENDCHAR
STARTCHAR braceright
ENCODING 125
SWIDTH 338 0
DWIDTH 6 0
BBX 4 12 1 -2
BITMAP
C0
60
60
40
60
30
60
40
40
60
60
C0
ENDCHAR
STARTCHAR asciitilde
ENCODING 126
SWIDTH 541 0
DWIDTH 8 0
BBX 6 3 1 4
BITMAP
60
B4
18
ENDCHAR
ENDFONT
